<?xml version="1.0" encoding="UTF-8"?>
<svg version="1.1" xmlns="http://www.w3.org/2000/svg" width="203" height="124">
<path d="M0 0 C66.99 0 133.98 0 203 0 C203 40.92 203 81.84 203 124 C136.01 124 69.02 124 0 124 C0 83.08 0 42.16 0 0 Z " fill="#251911" transform="translate(0,0)"/>
<path d="M0 0 C0.77842938 3.40562852 1.09978121 6.50765756 1 10 C4.465 11.485 4.465 11.485 8 13 C8 15.97 8 18.94 8 22 C9.65 22 11.3 22 13 22 C15.54521255 17.37234081 16.8545847 13.1103144 18 8 C19.32 8.33 20.64 8.66 22 9 C22.80041055 15.08312021 20.26204279 20.01250827 17 25 C14.14755949 27.64135991 13.517034 28.0184655 9.5 27.875 C6.18137426 27.04534356 4.48019477 26.28177919 2 24 C1.67 24.33 1.34 24.66 1 25 C-2.54622103 25.39402456 -4.398846 25.38535513 -7.4375 23.4375 C-9 21 -9 21 -8.9375 17.375 C-8 14 -8 14 -5 12 C-5 9.99198316 -5.00568101 7.98297485 -5.0859375 5.9765625 C-4.93953599 2.6093278 -3.53240041 0 0 0 Z " fill="#884414" transform="translate(74,58)"/>
<path d="M0 0 C2.36763952 3.34735242 1.97803884 5.48085381 1.71875 9.4609375 C1.85560527 12.52877642 3.67973185 13.49853082 5.8125 15.5625 C5.75 19.1875 5.75 19.1875 4.8125 22.5625 C1.16163224 24.99641184 -0.07885895 24.26268706 -4.20703125 23.5859375 C-7.31579558 23.54914739 -8.85767082 25.65084529 -11.1875 27.5625 C-15 27.3125 -15 27.3125 -18.1875 26.5625 C-17.5625 24.6875 -17.5625 24.6875 -16.1875 22.5625 C-13.0625 21.3125 -13.0625 21.3125 -10.1875 20.5625 C-10.5175 17.9225 -10.8475 15.2825 -11.1875 12.5625 C-8.5475 11.2425 -5.9075 9.9225 -3.1875 8.5625 C-3.1875 6.9125 -3.1875 5.2625 -3.1875 3.5625 C-9.25642629 3.30962807 -14.34950408 3.86417391 -20.1875 5.5625 C-20.5175 3.9125 -20.8475 2.2625 -21.1875 0.5625 C-14.29633651 -1.88769146 -6.84017129 -3.08478313 0 0 Z " fill="#894414" transform="translate(112.1875,58.4375)"/>
<path d="M0 0 C2.57485213 1.016389 3.82043546 1.64656278 5.375 3.9375 C5.5625 6.625 5.5625 6.625 5.375 8.9375 C6.5196875 9.0921875 6.5196875 9.0921875 7.6875 9.25 C10.57307812 9.98817115 11.63679817 10.55890803 13.375 12.9375 C13.375 13.9275 13.375 14.9175 13.375 15.9375 C12.68792969 15.83050781 12.00085938 15.72351562 11.29296875 15.61328125 C10.39191406 15.49339844 9.49085937 15.37351562 8.5625 15.25 C7.66917969 15.12238281 6.77585937 14.99476562 5.85546875 14.86328125 C3.30922002 14.67549208 3.30922002 14.67549208 1.6796875 16.4296875 C1.24914062 16.92726563 0.81859375 17.42484375 0.375 17.9375 C-2.59897616 17.66713853 -3.47946026 17.08303974 -5.625 14.9375 C-8.20854218 14.77062552 -8.20854218 14.77062552 -10.625 14.9375 C-10.52142657 20.01259791 -9.71774396 22.2639727 -6.0625 25.875 C-4.93059271 26.91125316 -3.78909107 27.93753665 -2.625 28.9375 C-3.285 30.2575 -3.945 31.5775 -4.625 32.9375 C-10.19538622 29.24644311 -13.96237181 26.15029912 -16.625 19.9375 C-17.25 16.8125 -17.25 16.8125 -16.625 13.9375 C-14.78475042 11.74535316 -13.06398427 10.56348951 -10.625 8.9375 C-9.635 8.9375 -8.645 8.9375 -7.625 8.9375 C-7.728125 8.195 -7.83125 7.4525 -7.9375 6.6875 C-7.625 3.9375 -7.625 3.9375 -5.4375 1.5625 C-2.625 -0.0625 -2.625 -0.0625 0 0 Z " fill="#894414" transform="translate(92.625,37.0625)"/>
</svg>
